<svg width="468" height="70" viewBox="0 0 468 70" fill="none" xmlns="http://www.w3.org/2000/svg">
<path d="M121.618 50.42C119.294 50.42 117.446 49.79 116.074 48.53C114.73 47.27 114.058 45.562 114.058 43.406C114.058 41.082 114.856 39.304 116.452 38.072C118.076 36.812 120.4 36.182 123.424 36.182H128.212V34.46C128.212 33.564 127.89 32.85 127.246 32.318C126.63 31.786 125.79 31.52 124.726 31.52C123.746 31.52 122.934 31.744 122.29 32.192C121.646 32.64 121.254 33.256 121.114 34.04H115.024C115.276 31.716 116.284 29.882 118.048 28.538C119.84 27.166 122.136 26.48 124.936 26.48C127.876 26.48 130.2 27.208 131.908 28.664C133.644 30.092 134.512 32.024 134.512 34.46V50H128.422V46.22H127.414L128.464 44.75C128.464 46.486 127.834 47.872 126.574 48.908C125.342 49.916 123.69 50.42 121.618 50.42ZM123.97 45.8C125.202 45.8 126.21 45.478 126.994 44.834C127.806 44.162 128.212 43.294 128.212 42.23V39.752H123.55C122.598 39.752 121.828 40.032 121.24 40.592C120.652 41.124 120.358 41.838 120.358 42.734C120.358 43.686 120.68 44.442 121.324 45.002C121.968 45.534 122.85 45.8 123.97 45.8ZM139.284 50V44.288H147.264V32.57H140.334V26.9H153.144V44.288H159.864V50H139.284ZM149.784 23.246C148.636 23.246 147.712 22.952 147.012 22.364C146.34 21.776 146.004 20.978 146.004 19.97C146.004 18.962 146.34 18.164 147.012 17.576C147.712 16.988 148.636 16.694 149.784 16.694C150.932 16.694 151.842 16.988 152.514 17.576C153.214 18.164 153.564 18.962 153.564 19.97C153.564 20.978 153.214 21.776 152.514 22.364C151.842 22.952 150.932 23.246 149.784 23.246ZM186.795 50V26.9H191.751V30.26H192.759L191.961 30.848C191.961 29.532 192.339 28.482 193.095 27.698C193.851 26.886 194.789 26.48 195.909 26.48C197.113 26.48 198.051 26.998 198.723 28.034C199.395 29.07 199.731 30.442 199.731 32.15L198.975 30.26H200.151L199.773 30.848C199.773 29.532 200.137 28.482 200.865 27.698C201.593 26.886 202.573 26.48 203.805 26.48C205.205 26.48 206.339 27.012 207.207 28.076C208.075 29.112 208.509 30.54 208.509 32.36V50H203.091V32.78C203.091 32.136 202.951 31.646 202.671 31.31C202.391 30.946 201.985 30.764 201.453 30.764C200.921 30.764 200.515 30.946 200.235 31.31C199.955 31.646 199.815 32.136 199.815 32.78V50H195.489V32.78C195.489 32.136 195.349 31.646 195.069 31.31C194.789 30.946 194.383 30.764 193.851 30.764C193.319 30.764 192.913 30.946 192.633 31.31C192.353 31.646 192.213 32.136 192.213 32.78V50H186.795ZM218.992 50.42C216.668 50.42 214.82 49.79 213.448 48.53C212.104 47.27 211.432 45.562 211.432 43.406C211.432 41.082 212.23 39.304 213.826 38.072C215.45 36.812 217.774 36.182 220.798 36.182H225.586V34.46C225.586 33.564 225.264 32.85 224.62 32.318C224.004 31.786 223.164 31.52 222.1 31.52C221.12 31.52 220.308 31.744 219.664 32.192C219.02 32.64 218.628 33.256 218.488 34.04H212.398C212.65 31.716 213.658 29.882 215.422 28.538C217.214 27.166 219.51 26.48 222.31 26.48C225.25 26.48 227.574 27.208 229.282 28.664C231.018 30.092 231.886 32.024 231.886 34.46V50H225.796V46.22H224.788L225.838 44.75C225.838 46.486 225.208 47.872 223.948 48.908C222.716 49.916 221.064 50.42 218.992 50.42ZM221.344 45.8C222.576 45.8 223.584 45.478 224.368 44.834C225.18 44.162 225.586 43.294 225.586 42.23V39.752H220.924C219.972 39.752 219.202 40.032 218.614 40.592C218.026 41.124 217.732 41.838 217.732 42.734C217.732 43.686 218.054 44.442 218.698 45.002C219.342 45.534 220.224 45.8 221.344 45.8ZM236.616 50V19.34H242.916V35.636H246.024L250.854 26.9H257.868L251.442 38.198L257.994 50H250.854L245.982 40.928H242.916V50H236.616ZM270.704 50.42C268.66 50.42 266.868 50.042 265.328 49.286C263.816 48.502 262.64 47.424 261.8 46.052C260.988 44.652 260.582 43.028 260.582 41.18V35.72C260.582 33.872 260.988 32.262 261.8 30.89C262.64 29.49 263.816 28.412 265.328 27.656C266.868 26.872 268.66 26.48 270.704 26.48C272.748 26.48 274.512 26.872 275.996 27.656C277.508 28.412 278.67 29.49 279.482 30.89C280.322 32.262 280.742 33.872 280.742 35.72V39.92H266.588V41.18C266.588 42.636 266.938 43.742 267.638 44.498C268.338 45.226 269.388 45.59 270.788 45.59C271.768 45.59 272.552 45.422 273.14 45.086C273.756 44.75 274.162 44.288 274.358 43.7H280.532C280.028 45.716 278.88 47.34 277.088 48.572C275.324 49.804 273.196 50.42 270.704 50.42ZM274.736 36.686V35.636C274.736 34.208 274.4 33.116 273.728 32.36C273.084 31.604 272.076 31.226 270.704 31.226C269.332 31.226 268.296 31.618 267.596 32.402C266.924 33.186 266.588 34.292 266.588 35.72V36.35L275.156 36.266L274.736 36.686ZM285.849 50V26.9H291.729V31.31H293.325L291.519 33.998C291.519 31.506 292.093 29.63 293.241 28.37C294.389 27.11 296.069 26.48 298.281 26.48C300.829 26.48 302.803 27.25 304.203 28.79C305.631 30.33 306.345 32.5 306.345 35.3V37.19H299.625V35.72C299.625 34.46 299.275 33.48 298.575 32.78C297.903 32.08 296.993 31.73 295.845 31.73C294.641 31.73 293.717 32.08 293.073 32.78C292.457 33.48 292.149 34.46 292.149 35.72V50H285.849ZM318.383 50.42C316.479 50.42 314.813 50.126 313.385 49.538C311.957 48.922 310.837 48.082 310.025 47.018C309.241 45.954 308.849 44.708 308.849 43.28H315.149C315.149 43.952 315.443 44.498 316.031 44.918C316.647 45.31 317.431 45.506 318.383 45.506H320.231C321.379 45.506 322.247 45.296 322.835 44.876C323.451 44.456 323.759 43.868 323.759 43.112C323.759 42.412 323.493 41.88 322.961 41.516C322.429 41.124 321.603 40.858 320.483 40.718L317.795 40.382C314.911 40.018 312.811 39.318 311.495 38.282C310.179 37.246 309.521 35.664 309.521 33.536C309.521 31.296 310.291 29.56 311.831 28.328C313.371 27.096 315.625 26.48 318.593 26.48H320.189C323.017 26.48 325.271 27.096 326.951 28.328C328.631 29.56 329.471 31.212 329.471 33.284H323.171C323.171 32.724 322.891 32.276 322.331 31.94C321.799 31.576 321.085 31.394 320.189 31.394H318.593C317.557 31.394 316.801 31.576 316.325 31.94C315.849 32.276 315.611 32.794 315.611 33.494C315.611 34.138 315.821 34.628 316.241 34.964C316.689 35.3 317.389 35.538 318.341 35.678L321.239 36.056C324.151 36.42 326.307 37.148 327.707 38.24C329.135 39.332 329.849 40.956 329.849 43.112C329.849 45.464 329.037 47.27 327.413 48.53C325.789 49.79 323.395 50.42 320.231 50.42H318.383ZM368.162 50.42C366.118 50.42 364.326 50.042 362.786 49.286C361.246 48.502 360.056 47.424 359.216 46.052C358.376 44.652 357.956 43.028 357.956 41.18V35.72C357.956 33.844 358.376 32.22 359.216 30.848C360.056 29.476 361.246 28.412 362.786 27.656C364.326 26.872 366.118 26.48 368.162 26.48C371.214 26.48 373.65 27.25 375.47 28.79C377.29 30.33 378.256 32.43 378.368 35.09H372.068C371.984 34.11 371.592 33.34 370.892 32.78C370.22 32.22 369.31 31.94 368.162 31.94C366.902 31.94 365.936 32.262 365.264 32.906C364.592 33.55 364.256 34.488 364.256 35.72V41.18C364.256 42.384 364.592 43.322 365.264 43.994C365.936 44.638 366.902 44.96 368.162 44.96C369.31 44.96 370.22 44.694 370.892 44.162C371.592 43.602 371.984 42.818 372.068 41.81H378.368C378.256 44.47 377.29 46.57 375.47 48.11C373.65 49.65 371.214 50.42 368.162 50.42ZM396.16 50C394.536 50 393.108 49.664 391.876 48.992C390.644 48.292 389.678 47.326 388.978 46.094C388.306 44.862 387.97 43.434 387.97 41.81V25.01H380.83V19.34H394.27V41.81C394.27 42.566 394.494 43.182 394.942 43.658C395.418 44.106 396.034 44.33 396.79 44.33H403.51V50H396.16ZM416.723 50.42C413.615 50.42 411.179 49.58 409.415 47.9C407.679 46.22 406.811 43.924 406.811 41.012V26.9H413.111V40.97C413.111 42.258 413.419 43.252 414.035 43.952C414.651 44.624 415.547 44.96 416.723 44.96C417.871 44.96 418.753 44.624 419.369 43.952C420.013 43.252 420.335 42.258 420.335 40.97V26.9H426.635V41.012C426.635 43.952 425.753 46.262 423.989 47.942C422.225 49.594 419.803 50.42 416.723 50.42ZM443.461 50.42C441.557 50.42 440.059 49.874 438.967 48.782C437.875 47.662 437.329 46.108 437.329 44.12L438.799 45.59H437.329V50H431.239V19.34H437.539V25.64L437.329 31.31H438.799L437.329 32.78C437.329 30.792 437.875 29.252 438.967 28.16C440.059 27.04 441.557 26.48 443.461 26.48C445.785 26.48 447.647 27.306 449.047 28.958C450.447 30.582 451.147 32.766 451.147 35.51V41.39C451.147 44.162 450.447 46.36 449.047 47.984C447.647 49.608 445.785 50.42 443.461 50.42ZM441.193 44.96C442.369 44.96 443.265 44.638 443.881 43.994C444.525 43.322 444.847 42.384 444.847 41.18V35.72C444.847 34.516 444.525 33.592 443.881 32.948C443.265 32.276 442.369 31.94 441.193 31.94C440.045 31.94 439.149 32.276 438.505 32.948C437.861 33.592 437.539 34.516 437.539 35.72V41.18C437.539 42.384 437.861 43.322 438.505 43.994C439.149 44.638 440.045 44.96 441.193 44.96Z" fill="#15224A"/>
<rect x="20" y="30" width="10" height="10" fill="#15224A"/>
<rect x="30" y="20" width="10" height="10" fill="#15224A"/>
<rect x="30" y="30" width="10" height="10" fill="#15224A"/>
<rect x="30" y="40" width="10" height="10" fill="#15224A"/>
<rect x="40" y="10" width="10" height="10" fill="#15224A"/>
<rect x="40" y="20" width="10" height="10" fill="#15224A"/>
<rect x="40" y="30" width="10" height="10" fill="#15224A"/>
<rect x="40" y="40" width="10" height="10" fill="#15224A"/>
<rect x="40" y="50" width="10" height="10" fill="#15224A"/>
<rect x="50" y="20" width="10" height="10" fill="#15224A"/>
<rect x="50" y="30" width="10" height="10" fill="#15224A"/>
<rect x="50" y="40" width="10" height="10" fill="#15224A"/>
<rect x="60" y="30" width="10" height="10" fill="#15224A"/>
<rect x="10" width="10" height="10" fill="#15224A"/>
<rect x="80" y="70" width="10" height="10" transform="rotate(-180 80 70)" fill="#15224A"/>
<path d="M0 10C0 4.47715 4.47715 0 10 0V0V10H0V10Z" fill="#15224A"/>
<path d="M90 60C90 65.5228 85.5228 70 80 70V70L80 60L90 60V60Z" fill="#15224A"/>
<rect y="10" width="10" height="10" fill="#15224A"/>
<rect x="90" y="60" width="10" height="10" transform="rotate(-180 90 60)" fill="#15224A"/>
<rect y="20" width="10" height="10" fill="#15224A"/>
<rect x="90" y="50" width="10" height="10" transform="rotate(-180 90 50)" fill="#15224A"/>
<rect y="30" width="10" height="10" fill="#15224A"/>
<rect x="90" y="40" width="10" height="10" transform="rotate(-180 90 40)" fill="#15224A"/>
<rect y="40" width="10" height="10" fill="#15224A"/>
<rect x="90" y="30" width="10" height="10" transform="rotate(-180 90 30)" fill="#15224A"/>
<rect y="50" width="10" height="10" fill="#15224A"/>
<rect x="90" y="20" width="10" height="10" transform="rotate(-180 90 20)" fill="#15224A"/>
<path d="M0 60H10V70V70C4.47715 70 0 65.5228 0 60V60Z" fill="#15224A"/>
<path d="M90 10L80 10L80 -8.74228e-07V-8.74228e-07C85.5228 -3.91405e-07 90 4.47715 90 10V10Z" fill="#15224A"/>
<rect x="10" y="60" width="10" height="10" fill="#15224A"/>
<rect x="80" y="10" width="10" height="10" transform="rotate(-180 80 10)" fill="#15224A"/>
</svg>
