<svg xmlns="http://www.w3.org/2000/svg" viewBox="0 0 100 100" width="100" height="100"><g fill="#15224A" transform="translate(5 15)"><rect x="20" y="30" width="10" height="10"/>
<rect x="30" y="20" width="10" height="10"/>
<rect x="30" y="30" width="10" height="10"/>
<rect x="30" y="40" width="10" height="10"/>
<rect x="40" y="10" width="10" height="10"/>
<rect x="40" y="20" width="10" height="10"/>
<rect x="40" y="30" width="10" height="10"/>
<rect x="40" y="40" width="10" height="10"/>
<rect x="40" y="50" width="10" height="10"/>
<rect x="50" y="20" width="10" height="10"/>
<rect x="50" y="30" width="10" height="10"/>
<rect x="50" y="40" width="10" height="10"/>
<rect x="60" y="30" width="10" height="10"/>
<rect x="10" width="10" height="10"/>
<rect x="80" y="70" width="10" height="10" transform="rotate(-180 80 70)"/>
<path d="M0 10C0 4.47715 4.47715 0 10 0V0V10H0V10Z"/>
<path d="M90 60C90 65.5228 85.5228 70 80 70V70L80 60L90 60V60Z"/>
<rect y="10" width="10" height="10"/>
<rect x="90" y="60" width="10" height="10" transform="rotate(-180 90 60)"/>
<rect y="20" width="10" height="10"/>
<rect x="90" y="50" width="10" height="10" transform="rotate(-180 90 50)"/>
<rect y="30" width="10" height="10"/>
<rect x="90" y="40" width="10" height="10" transform="rotate(-180 90 40)"/>
<rect y="40" width="10" height="10"/>
<rect x="90" y="30" width="10" height="10" transform="rotate(-180 90 30)"/>
<rect y="50" width="10" height="10"/>
<rect x="90" y="20" width="10" height="10" transform="rotate(-180 90 20)"/>
<path d="M0 60H10V70V70C4.47715 70 0 65.5228 0 60V60Z"/>
<path d="M90 10L80 10L80 -8.74228e-07V-8.74228e-07C85.5228 -3.91405e-07 90 4.47715 90 10V10Z"/>
<rect x="10" y="60" width="10" height="10"/>
<rect x="80" y="10" width="10" height="10" transform="rotate(-180 80 10)"/></g></svg>
